<?xml version="1.0" encoding="UTF-8"?>
<svg id="_레이어_3" data-name="레이어_3" xmlns="http://www.w3.org/2000/svg" viewBox="0 0 500 500">
  <defs>
    <style>
      .cls-1 {
        fill: #fff;
      }
    </style>
  </defs>
  <path d="M451.74,317.11c-2.75,6.75-5.26,13.47-8.19,20-5.51,12.27-11.94,24.04-20.74,34.33-5.74,6.71-12.07,12.67-21,14.92-6.13,1.55-12.18.9-18.22-.63-6.5-1.65-12.98-3.28-18.42-7.54-7.67-6-11.76-14.23-14.54-23.25-3.99-12.98-5.01-26.35-4.47-39.83.37-9.21,1.24-18.41,2.01-27.6.16-1.94-1.07-2.13-2.28-2.45-11.37-3-22.74-5.96-34.11-8.96-39.55-10.43-79.1-20.88-118.66-31.31-12.53-3.3-25.08-6.57-37.62-9.84-.22-.06-.46,0-.76,0-3.02,11.39-6.73,22.54-12.04,33.08-5.14,10.2-10.67,20.19-18.94,28.3-10.93,10.71-23.81,14.58-38.91,11.38-11.39-2.42-21.18-7.24-28.33-16.72-4.81-6.38-8.37-13.43-11.06-20.9-4.18-11.6-6.87-23.58-7.35-35.89-.4-10.27-.84-20.63.09-30.83,2.92-32.06,13.5-61.33,33.98-86.56,7.39-9.1,15.95-17.01,27.44-20.49,14.31-4.33,28.2-3.45,40.53,5.95,8.04,6.13,12.7,14.78,16.14,24.07,3.95,10.65,6.55,21.68,6.81,33.04.27,11.49-.15,22.99-.39,34.49-.04,1.79.16,2.61,2.2,3.11,44.04,10.77,88.05,21.62,132.06,32.51,19.93,4.93,39.83,9.98,59.75,14.96.14.04.31-.03.6-.06,1.96-5.54,3.89-11.16,5.95-16.72,5.29-14.28,11.63-28.06,21.06-40.12,3.62-4.63,7.79-8.93,12.23-12.8,9.47-8.24,20.37-9.35,32.27-6.01,14.42,4.05,23.09,13.92,28.86,26.99,4.18,9.45,6.24,19.43,7.39,29.67,1.2,10.69,1,21.36.39,32.05-.04.73-.2,1.44-.31,2.17-.34,2.27-.29,4.01,2.14,5.64,3.8,2.54,5.37,6.79,5.96,11.24,1.61,12.03-1.62,23.08-7.44,33.42-3.14,5.57-7.16,7.36-14.09,7.19ZM151.78,186.6c1.02-11.86.86-23.16-.72-34.46-1.35-9.64-3.78-18.95-7.97-27.75-2.64-5.54-6.1-10.48-11.14-14.15-3.92-2.86-7.23-2.85-11.1,0-.91.67-1.79,1.41-2.58,2.22-5.48,5.63-9.43,12.32-12.95,19.25-14.63,28.75-23.1,59.22-25.45,91.4-1.2,16.41-.34,32.66,3.97,48.61,2.21,8.17,5.38,15.89,11.23,22.25,2.4,2.61,5.21,3.2,8.58,2.31,5.63-1.49,9.98-4.86,13.78-9.05,5.47-6.04,9.32-13.15,13.28-20.21,5.74-10.23,8.91-21.42,12.84-32.65-1.05.74-1.82,1.33-2.63,1.86-7.02,4.71-15.47,3.89-21.47-2.07-4.92-4.88-6.88-11.02-7.39-17.7-.8-10.43,2.96-19.48,8.89-27.77,5.2-7.26,12.06-10.46,21.04-8.47,3.95.87,7,3.05,9.77,6.38ZM453.82,259.63c.22-3.68.4-7.23.65-10.78.87-12.45-.18-24.75-3.11-36.85-1.72-7.07-3.98-14.01-8.68-19.77-4.09-5.01-7.12-5.6-11.87-1.3-4.21,3.81-8.04,8.24-11.25,12.94-8.9,13.05-14.27,27.77-19.05,42.7-6.81,21.27-11.43,43.02-13.25,65.28-1.14,13.9-1.39,27.88.97,41.7.94,5.5,2.53,11.02,4.69,16.16,2.7,6.43,6.49,7.47,11.96,3.22,4.55-3.54,8.77-7.71,12.39-12.21,8.53-10.6,14.14-22.88,19.06-35.48,1.39-3.55,2.66-7.15,3.97-10.7-4.53-1.33-8.7-2.56-12.86-3.79-4.56-1.35-7.44-4.5-8.07-9.06-.62-4.52-.83-9.18-.51-13.73.66-9.36,3.85-17.98,9.26-25.64,4.14-5.85,8.5-7.14,15.45-5.31,3.34.88,6.69,1.7,10.26,2.61ZM354.19,255.92c-29.59-7.43-58.87-14.8-88.15-22.13-30.07-7.53-60.15-15-90.22-22.53-9.45-2.36-18.89-4.77-28.3-7.25-3.99-1.05-8.04,1.74-8.96,6.46-.96,4.93-.13,7.37,4.85,9.13,3.33,1.18,6.78,2.08,10.2,2.98,33.64,8.84,67.3,17.62,100.94,26.47,31.77,8.35,63.51,16.77,95.4,25.19,1.42-6.11,2.81-12.14,4.24-18.31ZM425.53,180.27c-5.67-1.85-11.14-2.3-16.59.32-6.32,3.04-10.95,8.02-15.11,13.44-9.94,12.97-16.38,27.74-21.78,43.02-7.81,22.09-12.86,44.79-14.5,68.17-.86,12.22-.72,24.47,1.42,36.59,1.36,7.72,3.5,15.21,7.76,21.96,3.5,5.55,8.63,8.42,15.14,9.89-.27-.93-.4-1.53-.61-2.11-3.84-10.42-5.35-21.3-5.74-32.3-.6-16.79.64-33.49,3.27-50.11,3.62-22.85,9.58-45.06,18.23-66.5,6.47-16.06,14.3-31.3,28.53-42.38ZM107.79,106.42c-1.11.2-1.98.31-2.82.53-1.01.26-2.02.57-2.99.93-9.54,3.58-16.5,10.45-22.48,18.3-19.61,25.74-29.21,55.09-30.67,87.2-.61,13.38.35,26.69,3.37,39.78,2.79,12.05,7.05,23.47,15.01,33.18,3.8,4.64,8.4,8.17,14.69,9.61-1.06-1.96-2.05-3.61-2.87-5.33-6.92-14.51-9.79-30.01-10.67-45.89-.81-14.67.05-29.31,2.43-43.82,2.74-16.72,7.05-33.06,13.05-48.92,6.07-16.04,13.08-31.59,23.96-45.58ZM451.66,270.79c-2.96-.84-5.95-1.68-8.94-2.54-3.83-1.1-5.07-.88-6.97,2.56-4.51,8.14-6.6,16.91-5.77,26.25.16,1.84.92,3.5,2.9,4.07,3.62,1.04,7.26,1.98,11.09,3.02.18-11.79.8-23.2,7.68-33.36ZM133.42,227.29c-6.15-5.2-7.32-11.97-5.67-19.34,1.65-7.35,5.87-12.81,13.44-15.45-3.46-2.11-6.4-1.8-9.2.65-5.49,4.8-7.96,11.12-8.66,18.13-.49,4.96.04,9.89,3.18,14.1,2.04,2.74,4.26,3.33,6.92,1.9ZM455.59,304.16c5.47-6.31,8.74-22.18,5.92-28.04-5.52,8.57-6.34,17.85-5.92,28.04Z"/>
  <g>
    <path class="cls-1" d="M119.47,234.17c-4.92-4.88-6.88-11.02-7.39-17.7-.8-10.43,2.96-19.48,8.89-27.77,5.2-7.26,12.06-10.46,21.04-8.47,3.95.87,7,3.05,9.77,6.38,1.02-11.86.86-23.16-.72-34.46-1.35-9.64-3.78-18.95-7.97-27.75-2.64-5.54-6.1-10.48-11.14-14.15-3.92-2.86-7.23-2.85-11.1,0-.91.67-1.79,1.41-2.58,2.22-5.48,5.63-9.43,12.32-12.95,19.25-14.63,28.75-23.1,59.22-25.45,91.4-1.2,16.41-.34,32.66,3.97,48.61,2.21,8.17,5.38,15.89,11.23,22.25,2.4,2.61,5.21,3.2,8.58,2.31,5.63-1.49,9.98-4.86,13.78-9.05,5.47-6.04,9.32-13.15,13.28-20.21,5.74-10.23,8.91-21.42,12.84-32.65-1.05.74-1.82,1.33-2.63,1.86-7.02,4.71-15.47,3.89-21.47-2.07Z"/>
    <path class="cls-1" d="M442.68,192.24c-4.09-5.01-7.12-5.6-11.87-1.3-4.21,3.81-8.04,8.24-11.25,12.94-8.9,13.05-14.27,27.77-19.05,42.7-6.81,21.27-11.43,43.02-13.25,65.28-1.14,13.9-1.39,27.88.97,41.7.94,5.5,2.53,11.02,4.69,16.16,2.7,6.43,6.49,7.47,11.96,3.22,4.55-3.54,8.77-7.71,12.39-12.21,8.53-10.6,14.14-22.88,19.06-35.48,1.39-3.55,2.66-7.15,3.97-10.7-4.53-1.33-8.7-2.56-12.86-3.79-4.56-1.35-7.44-4.5-8.07-9.06-.62-4.52-.83-9.18-.51-13.73.66-9.36,3.85-17.98,9.26-25.64,4.14-5.85,8.5-7.14,15.45-5.31,3.34.88,6.69,1.7,10.26,2.61.22-3.68.4-7.23.65-10.78.87-12.45-.18-24.75-3.11-36.85-1.72-7.07-3.98-14.01-8.68-19.77Z"/>
    <path class="cls-1" d="M175.82,211.25c-9.45-2.36-18.89-4.77-28.3-7.25-3.99-1.05-8.04,1.74-8.96,6.46-.96,4.93-.13,7.37,4.85,9.13,3.33,1.18,6.78,2.08,10.2,2.98,33.64,8.84,67.3,17.62,100.94,26.47,31.77,8.35,63.51,16.77,95.4,25.19,1.42-6.11,2.81-12.14,4.24-18.31-29.59-7.43-58.87-14.8-88.15-22.13-30.07-7.53-60.15-15-90.22-22.53Z"/>
    <path class="cls-1" d="M375.51,339.26c-.6-16.79.64-33.49,3.27-50.11,3.62-22.85,9.58-45.06,18.23-66.5,6.47-16.06,14.3-31.3,28.53-42.38-5.67-1.85-11.14-2.3-16.59.32-6.32,3.04-10.95,8.02-15.11,13.44-9.94,12.97-16.38,27.74-21.78,43.02-7.81,22.09-12.86,44.79-14.5,68.17-.86,12.22-.72,24.47,1.42,36.59,1.36,7.72,3.5,15.21,7.76,21.96,3.5,5.55,8.63,8.42,15.14,9.89-.27-.93-.4-1.53-.61-2.11-3.84-10.42-5.35-21.3-5.74-32.3Z"/>
    <path class="cls-1" d="M68.36,244.73c-.81-14.67.05-29.31,2.43-43.82,2.74-16.72,7.05-33.06,13.05-48.92,6.07-16.04,13.08-31.59,23.96-45.58-1.11.2-1.98.31-2.82.53-1.01.26-2.02.57-2.99.93-9.54,3.58-16.5,10.45-22.48,18.3-19.61,25.74-29.21,55.09-30.67,87.2-.61,13.38.35,26.69,3.37,39.78,2.79,12.05,7.05,23.47,15.01,33.18,3.8,4.64,8.4,8.17,14.69,9.61-1.06-1.96-2.05-3.61-2.87-5.33-6.92-14.51-9.79-30.01-10.67-45.89Z"/>
    <path class="cls-1" d="M435.75,270.8c-4.51,8.14-6.6,16.91-5.77,26.25.16,1.84.92,3.5,2.9,4.07,3.62,1.04,7.26,1.98,11.09,3.02.18-11.79.8-23.2,7.68-33.36-2.96-.84-5.95-1.68-8.94-2.54-3.83-1.1-5.07-.88-6.97,2.56Z"/>
    <path class="cls-1" d="M141.19,192.5c-3.46-2.11-6.4-1.8-9.2.65-5.49,4.8-7.96,11.12-8.66,18.13-.49,4.96.04,9.89,3.18,14.1,2.04,2.74,4.26,3.33,6.92,1.9-6.15-5.2-7.32-11.97-5.67-19.34,1.65-7.35,5.87-12.81,13.44-15.45Z"/>
    <path class="cls-1" d="M461.51,276.12c-5.52,8.57-6.34,17.85-5.92,28.04,5.47-6.31,8.74-22.18,5.92-28.04Z"/>
  </g>
</svg>