<?xml version="1.0" encoding="UTF-8"?>
<svg id="_레이어_1" data-name="레이어 1" xmlns="http://www.w3.org/2000/svg" viewBox="0 0 500 500">
  <defs>
    <style>
      .cls-1 {
        fill: #aeffcf;
      }

      .cls-2 {
        fill: #c0ffed;
      }

      .cls-3 {
        fill: #9fc;
      }
    </style>
  </defs>
  <path d="M461.68,186.58c-5.72-5.39-12.86-8.2-20.37-10.1-17.23-4.36-34.78-4.81-52.37-3.86-11.13.61-22.21,2.07-33.32,3-.85.07-2.12-.67-2.64-1.43-11.11-15.85-24.88-28.84-41.63-38.56-23.8-13.81-49.57-19.13-76.86-16.88-15.29,1.26-30.11,4.93-44.04,11.49-39.83,18.79-64.19,49.99-72.96,93.03-1.26,6.17-3.81,8.86-9.24,11.16-18.99,8.08-37.26,17.58-53.7,30.23-7.96,6.14-15.23,12.95-20.15,21.88-4.92,8.94-5.81,18.15-.84,27.35,3.48,6.42,9.22,10.45,15.7,13.47,10.34,4.81,21.38,6.9,32.62,8.08,20.56,2.12,41.11,1.41,61.63-.39,2.25-.19,3.92.09,5.61,2.01,9.48,10.85,20.54,19.88,33.06,27.02,25.86,14.76,53.64,19.68,86.43,15.3,3.7-.93,10.8-2.24,17.59-4.49,23.41-7.73,42.92-21.28,58.49-40.4,12.22-15,20.49-32.03,25.64-50.62.45-1.62,1.01-2.86,2.8-3.61,7.21-2.96,14.4-5.96,21.47-9.24,18.33-8.55,36.16-18.01,51.94-30.87,7.8-6.34,14.94-13.3,19.6-22.38,5.9-11.51,4.36-22.88-4.45-31.18ZM127.11,252.8c-.72-14.12,1.05-28.05,5.57-41.5,11.62-34.51,34.29-58.8,68.05-72.46,12.3-4.99,25.22-7.59,38.53-8.43,22.06-1.42,42.87,2.98,62.28,13.46,26.1,14.07,44.22,35.23,54.51,63.02,3.72,10.05,5.64,20.5,6.12,31.22.08,1.82-.23,3.16-2.32,3.89-17.01,6.06-33.87,12.57-51,18.24-12.41,4.11-25.1,7.46-37.8,10.62-16.02,3.98-32.12,7.6-48.27,11.02-11.48,2.43-23.09,4.28-34.41,6.34-13.16,1.45-26.06,2.93-38.97,4.28-3.77.4-7.57.52-11.37.61-.63.01-1.66-.68-1.87-1.27-2.13-6.04-4.59-12.03-6.02-18.24-1.56-6.82-2.68-13.83-3.05-20.81ZM275.89,365.27c-43.4,11.04-81.54-.54-113.89-31.47,33.5-3.87,66.47-10.21,99.18-17.87,32.54-7.63,64.45-17.4,95.98-29.06-14.11,39.54-39.81,67.85-81.28,78.4ZM456.42,210.85c-2.98,6.42-7.68,11.53-12.83,16.22-11.71,10.64-25.17,18.65-39.1,25.94-19.51,10.19-39.83,18.56-60.57,25.9-10.83,3.83-21.69,7.64-32.65,11.1-9.81,3.1-19.75,5.76-29.67,8.47-8.43,2.31-16.87,4.58-25.37,6.6-7.87,1.87-15.79,3.61-23.75,5.03-19.7,3.48-39.4,7.1-59.2,9.97-13.31,1.93-26.78,2.82-40.2,3.94-16.59,1.37-33.2,1.48-49.77-.34-10.7-1.18-21.34-2.88-31-8.08-4.35-2.34-8.07-5.38-9.73-10.38-1.12-3.42-.59-6.67.63-9.86,2.98-7.76,8.7-13.41,14.93-18.47,15.28-12.42,32.35-21.83,50.4-29.56,1.88-.81,3.79-1.54,5.69-2.3.08-.03.17-.01.58-.02.08,3.01.23,5.88.18,8.75-.01.47-.82,1.08-1.39,1.36-8.08,4.07-16.1,8.21-22.83,14.4-3.44,3.17-6.32,6.78-7.73,11.33-2.22,7.18.93,14.41,7.88,18.13,7.27,3.88,15.24,5.05,23.29,5.68,13.17,1.05,26.35.86,39.45-.67,17.83-2.07,35.66-4.17,53.41-6.84,11.67-1.75,23.22-4.43,34.78-6.89,10.33-2.21,20.67-4.44,30.88-7.13,12.73-3.37,25.36-7.11,37.97-10.91,20.45-6.14,40.55-13.27,59.95-22.26,12.24-5.66,24.16-11.95,34.06-21.35,2.32-2.2,4.43-4.69,6.23-7.34,5.4-7.94,2.8-17.53-5.73-22.03-6.51-3.43-13.56-4.41-20.76-4.4-6.51,0-13.01.48-19.87.77-1.09-2.46-2.39-5.33-3.71-8.27,5.35-.78,10.55-1.85,15.8-2.22,9.12-.64,18.28-1.14,27.42-1.13,13.31.02,26.63.84,39.31,5.36,3.58,1.27,7.09,3.26,10.04,5.65,4.99,4.05,5.82,9.74,2.95,15.89ZM123.35,293.52c-5.19-.53-10.62-.87-15.97-1.72-3.36-.53-6.73-1.54-9.87-2.85-4.02-1.67-4.51-4.12-1.86-7.57,4.05-5.29,9.73-8.49,15.34-11.77,1.69-.99,3.48-1.81,5.15-2.67,2.39,8.85,4.74,17.48,7.21,26.58ZM368.98,207.01c5.95-.11,12.01-.48,18.04-.26,3.63.13,7.33.84,10.82,1.89,4.83,1.45,5.43,3.95,2.31,7.85-4.6,5.76-10.69,9.69-16.83,13.52-3.09,1.93-6.35,3.61-9.29,5.26-1.66-9.27-3.29-18.42-5.05-28.26Z"/>
  <path class="cls-2" d="M456.42,210.85c-2.98,6.42-7.68,11.53-12.83,16.22-11.71,10.64-25.17,18.65-39.1,25.94-19.51,10.19-39.83,18.56-60.57,25.9-10.83,3.83-21.69,7.64-32.65,11.1-9.81,3.1-19.75,5.76-29.67,8.47-8.43,2.31-16.87,4.58-25.37,6.6-7.87,1.87-15.79,3.61-23.75,5.03-19.7,3.48-39.4,7.1-59.2,9.97-13.31,1.93-26.78,2.82-40.2,3.94-16.59,1.37-33.2,1.48-49.77-.34-10.7-1.18-21.34-2.88-31-8.08-4.35-2.34-8.07-5.38-9.73-10.38-1.12-3.42-.59-6.67.63-9.86,2.98-7.76,8.7-13.41,14.93-18.47,15.28-12.42,32.35-21.83,50.4-29.56,1.88-.81,3.79-1.54,5.69-2.3.08-.03.17-.01.58-.02.08,3.01.23,5.88.18,8.75-.01.47-.82,1.08-1.39,1.36-8.08,4.07-16.1,8.21-22.83,14.4-3.44,3.17-6.32,6.78-7.73,11.33-2.22,7.18.93,14.41,7.88,18.13,7.27,3.88,15.24,5.05,23.29,5.68,13.17,1.05,26.35.86,39.45-.67,17.83-2.07,35.66-4.17,53.41-6.84,11.67-1.75,23.22-4.43,34.78-6.89,10.33-2.21,20.67-4.44,30.88-7.13,12.73-3.37,25.36-7.11,37.97-10.91,20.45-6.14,40.55-13.27,59.95-22.26,12.24-5.66,24.16-11.95,34.06-21.35,2.32-2.2,4.43-4.69,6.23-7.34,5.4-7.94,2.8-17.53-5.73-22.03-6.51-3.43-13.56-4.41-20.76-4.4-6.51,0-13.01.48-19.87.77-1.09-2.46-2.39-5.33-3.71-8.27,5.35-.78,10.55-1.85,15.8-2.22,9.12-.64,18.28-1.14,27.42-1.13,13.31.02,26.63.84,39.31,5.36,3.58,1.27,7.09,3.26,10.04,5.65,4.99,4.05,5.82,9.74,2.95,15.89Z"/>
  <path class="cls-1" d="M357.16,286.88c-14.11,39.54-39.81,67.85-81.28,78.4-43.4,11.04-81.54-.54-113.89-31.47,33.5-3.87,66.47-10.21,99.18-17.87,32.54-7.63,64.45-17.4,95.98-29.06Z"/>
  <path class="cls-3" d="M362.17,238.11c.08,1.82-.23,3.16-2.32,3.89-17.01,6.06-33.87,12.57-51,18.24-12.41,4.11-25.1,7.46-37.8,10.62-16.02,3.98-32.12,7.6-48.27,11.02-11.48,2.43-23.09,4.28-34.41,6.34-13.16,1.45-26.06,2.93-38.97,4.28-3.77.4-7.57.52-11.37.61-.63.01-1.66-.68-1.87-1.27-2.13-6.04-4.59-12.03-6.02-18.24-1.56-6.82-2.68-13.83-3.05-20.81-.72-14.12,1.05-28.05,5.57-41.5,11.62-34.51,34.29-58.8,68.05-72.46,12.3-4.99,25.22-7.59,38.53-8.43,22.06-1.42,42.87,2.98,62.28,13.46,26.1,14.07,44.22,35.23,54.51,63.02,3.72,10.05,5.64,20.5,6.12,31.22Z"/>
</svg>