<?xml version="1.0" encoding="UTF-8"?>
<svg id="_레이어_1" data-name="레이어 1" xmlns="http://www.w3.org/2000/svg" viewBox="0 0 500 500">
  <defs>
    <style>
      .cls-1 {
        fill: #ffd400;
      }

      .cls-2 {
        fill: #ff5f85;
      }

      .cls-3 {
        fill: #ffd2d5;
      }
    </style>
  </defs>
  <path d="M470.34,153.21c-10.1-6.69-21.7-8.89-33.44-10.09-17.52-1.79-34.88-.36-51.94,4.05-2.32.6-3.26.22-4.39-1.93-7.81-14.88-18.56-27.21-32.43-36.8-30.67-21.2-64.4-28.52-101.03-21.9-20.71,3.75-39.93,11.69-57.94,22.52-18.22,10.95-32.97,25.36-43.08,44.21-9.28,17.31-14.39,35.93-16.54,55.36-.53,4.73-1.94,7.51-6.67,9.76-18.01,8.56-35.6,17.93-50.55,31.48-8.66,7.86-16.49,16.35-21.92,26.85-3.99,7.71-5.86,15.88-4.43,24.46,1.78,10.7,8.99,17,18.59,20.87,12.63,5.08,25.99,6.43,39.4,6.86,9.98.31,20.02-.01,30-.59,8.12-.47,16.19-1.8,24.29-2.58,1.12-.1,2.65.47,3.43,1.27,9.35,9.58,20.08,17.25,31.88,23.45,4.24,2.23,8.7,4.04,13.83,6.4-8.61,8.68-16.85,17.14-25.28,25.41-3.83,3.76-4.94,8.09-3.78,13.12,2.36,10.26,7.98,18.61,15.74,25.5,4.22,3.74,9.11,6.62,15.06,5.92,10.1-1.2,17.75-12.28,15.26-22.21-1.06-4.21-2.93-8.22-4.28-11.88,7.81-9.71,15.67-19.47,23.45-29.14,11.96-.67,24.28-1.36,36.88-2.07.22.53.67,1.48,1.03,2.47,5.33,14.51,10.72,29.01,15.93,43.57,1.53,4.3,4.23,6.97,8.77,6.91,5.44-.09,10.94-.3,16.28-1.21,8.9-1.53,17.39-4.47,24.83-9.82,5.86-4.22,7.87-12.09,5.1-19.4-2.74-7.23-8.53-10.98-16.14-10.11-4.36.5-8.66,1.51-13.01,2.1-.82.11-2.3-.41-2.58-1.03-3.3-7.41-6.43-14.88-9.49-22.08,5.95-3.08,11.86-5.8,17.43-9.1,13.79-8.16,25.19-19.15,35.77-31.06,13.89-15.63,23.88-33.42,29.5-53.58.63-2.25,1.74-3.48,3.69-4.6,15.24-8.84,30.62-17.47,45.54-26.81,11.76-7.36,22.44-16.23,30.82-27.49,4.44-5.97,7.91-12.39,9.08-19.9,1.86-11.93-2.95-20.73-12.66-27.16ZM149.34,176.81c8.81-25.76,25.4-44.96,49.19-58.07,15.32-8.44,31.27-15.18,48.48-18.67,12.71-2.58,25.48-3,38.37-1.61,19.3,2.09,36.9,8.76,53.13,19.19,22.74,14.61,35.74,35.86,40.94,61.96,1.92,9.64,2.38,19.57,3.59,29.35.31,2.51-.71,3.63-2.98,4.58-23.98,10-48.42,18.73-73.17,26.61-32.45,10.33-64.75,21.14-97.77,29.59-17.05,4.37-34.23,8.03-51.73,10.08-3.33.39-6.7.58-10.06.59-.75,0-2.06-1.06-2.19-1.79-1.48-8.37-3-16.74-4.05-25.17-.7-5.62-.67-11.32-.96-16.98.08-20.37,2.6-40.34,9.21-59.66ZM129.69,264.64c.88,5.41,1.7,10.45,2.67,16.39-4.19-.8-8.15-1.45-12.04-2.36-1.87-.43-1.9-2.06-1.22-3.48,2.27-4.71,6.14-7.8,10.59-10.55ZM223.46,369.82c-4.65,5.26-9.34,10.49-14.32,15.42-2.83,2.81-3.35,5.64-1.83,9.06,1.44,3.23,3.02,6.41,4.46,9.64,1.53,3.45,1.29,6.79-1.42,9.53-.72.73-2.57,1.2-3.39.78-2.36-1.21-4.73-2.65-6.59-4.5-4.96-4.92-8.17-11.01-10.74-16.96,6.8-7.01,13.39-13.72,19.87-20.54,3.18-3.34,6.22-6.82,9.18-10.37,1.3-1.55,2.55-1.92,4.48-1.35,1.91.57,3.95.69,6.52,1.09-2.16,2.87-4.01,5.7-6.22,8.2ZM322.48,388.89c4.57-1,9.15-1.93,13.72-2.88,2.77-.58,4.16,1.06,5.3,3.24,1.24,2.37.11,3.89-1.76,5.04-6.13,3.77-13,5.48-19.93,6.86-3.73.75-7.55,1.05-11.14,1.52-5.45-15.03-10.69-29.45-16-44.09,2.06-.6,4.39-1.28,6.99-2.04,2.41,5.85,4.74,11.58,7.11,17.28,1.28,3.09,2.6,6.16,3.99,9.2,2.57,5.66,5.7,7.18,11.72,5.87ZM370.27,283.91c-13.48,21.52-30.75,39.29-53.05,51.65-13.13,7.27-27.4,11.43-42.39,13.18-11.11,1.29-22.18,1.82-33.34,1.09-24.37-1.57-46.16-9.34-64.76-26.67,70.36-11.05,137.91-30.44,202.76-59.74-2.16,7.3-5.23,14.13-9.22,20.49ZM467.53,187.03c-6.15,10.87-15.38,18.84-25.27,26.09-25.42,18.64-53.51,32.47-82.37,44.72-41.11,17.46-83.38,31.52-127.04,41.12-18.83,4.14-37.72,8.12-56.72,11.39-25.69,4.42-51.63,6.51-77.73,5.31-9.56-.44-19.11-1.46-28.16-4.92-11.24-4.31-14.63-11.63-10.72-23.01,3.52-10.25,10-18.54,17.82-25.76,14.74-13.6,32.33-22.75,50.97-32.06,0,6.68-.05,12.64.04,18.6.03,1.62-.45,2.52-1.89,3.37-6.35,3.71-12.09,8.2-16.39,14.27-2.49,3.51-3.9,7.38-3.75,11.81.17,4.59,2.15,8.06,5.89,10.6,4.24,2.87,9.09,4.07,14.05,4.59,18.32,1.92,36.4-.22,54.35-3.66,34.47-6.61,67.89-17.11,101.22-27.84,27.33-8.8,54.58-17.88,81.64-27.48,14.1-5.01,28.04-10.71,40.99-18.43,5.21-3.11,10.16-6.58,13.73-11.66,6.21-8.82,3.81-17.07-6.37-20.71-3.55-1.26-7.44-1.69-11.21-2.15-2.64-.33-5.36-.06-7.83-.06-1.87-7.13-3.68-14.01-5.63-21.44,4.98-.92,10.06-2.33,15.21-2.72,9.66-.73,19.37-1.27,29.05-1.14,9.4.12,18.64,1.9,27.37,5.63,12.49,5.33,15.41,13.74,8.75,25.54ZM394.55,193.02c5.04.7,9.7,1.34,15,2.07-3.96,5.57-8.95,8.17-14.16,11.2-.28-4.45-.54-8.55-.84-13.27Z"/>
  <path class="cls-3" d="M339.74,394.29c-6.13,3.77-13,5.48-19.93,6.86-3.73.75-7.55,1.05-11.14,1.52-5.45-15.03-10.69-29.45-16-44.09,2.06-.6,4.39-1.28,6.99-2.04,2.41,5.85,4.74,11.58,7.11,17.28,1.28,3.09,2.6,6.16,3.99,9.2,2.57,5.66,5.7,7.18,11.72,5.87,4.57-1,9.15-1.93,13.72-2.88,2.77-.58,4.16,1.06,5.3,3.24,1.24,2.37.11,3.89-1.76,5.04Z"/>
  <path class="cls-3" d="M209.14,385.24c-2.83,2.81-3.35,5.64-1.83,9.06,1.44,3.23,3.02,6.41,4.46,9.64,1.53,3.45,1.29,6.79-1.42,9.53-.72.73-2.57,1.2-3.39.78-2.36-1.21-4.73-2.65-6.59-4.5-4.96-4.92-8.17-11.01-10.74-16.96,6.8-7.01,13.39-13.72,19.87-20.54,3.18-3.34,6.22-6.82,9.18-10.37,1.3-1.55,2.55-1.92,4.48-1.35,1.91.57,3.95.69,6.52,1.09-2.16,2.87-4.01,5.7-6.22,8.2-4.65,5.26-9.34,10.49-14.32,15.42Z"/>
  <path class="cls-2" d="M467.53,187.03c-6.15,10.87-15.38,18.84-25.27,26.09-25.42,18.64-53.51,32.47-82.37,44.72-41.11,17.46-83.38,31.52-127.04,41.12-18.83,4.14-37.72,8.12-56.72,11.39-25.69,4.42-51.63,6.51-77.73,5.31-9.56-.44-19.11-1.46-28.16-4.92-11.24-4.31-14.63-11.63-10.72-23.01,3.52-10.25,10-18.54,17.82-25.76,14.74-13.6,32.33-22.75,50.97-32.06,0,6.68-.05,12.64.04,18.6.03,1.62-.45,2.52-1.89,3.37-6.35,3.71-12.09,8.2-16.39,14.27-2.49,3.51-3.9,7.38-3.75,11.81.17,4.59,2.15,8.06,5.89,10.6,4.24,2.87,9.09,4.07,14.05,4.59,18.32,1.92,36.4-.22,54.35-3.66,34.47-6.61,67.89-17.11,101.22-27.84,27.33-8.8,54.58-17.88,81.64-27.48,14.1-5.01,28.04-10.71,40.99-18.43,5.21-3.11,10.16-6.58,13.73-11.66,6.21-8.82,3.81-17.07-6.37-20.71-3.55-1.26-7.44-1.69-11.21-2.15-2.64-.33-5.36-.06-7.83-.06-1.87-7.13-3.68-14.01-5.63-21.44,4.98-.92,10.06-2.33,15.21-2.72,9.66-.73,19.37-1.27,29.05-1.14,9.4.12,18.64,1.9,27.37,5.63,12.49,5.33,15.41,13.74,8.75,25.54Z"/>
  <path class="cls-3" d="M379.49,263.42c-2.16,7.3-5.23,14.13-9.22,20.49-13.48,21.52-30.75,39.29-53.05,51.65-13.13,7.27-27.4,11.43-42.39,13.18-11.11,1.29-22.18,1.82-33.34,1.09-24.37-1.57-46.16-9.34-64.76-26.67,70.36-11.05,137.91-30.44,202.76-59.74Z"/>
  <path class="cls-3" d="M380.06,213.54c-23.98,10-48.42,18.73-73.17,26.61-32.45,10.33-64.75,21.14-97.77,29.59-17.05,4.37-34.23,8.03-51.73,10.08-3.33.39-6.7.58-10.06.59-.75,0-2.06-1.06-2.19-1.79-1.48-8.37-3-16.74-4.05-25.17-.7-5.62-.67-11.32-.96-16.98.08-20.37,2.6-40.34,9.21-59.66,8.81-25.76,25.4-44.96,49.19-58.07,15.32-8.44,31.27-15.18,48.48-18.67,12.71-2.58,25.48-3,38.37-1.61,19.3,2.09,36.9,8.76,53.13,19.19,22.74,14.61,35.74,35.86,40.94,61.96,1.92,9.64,2.38,19.57,3.59,29.35.31,2.51-.71,3.63-2.98,4.58Z"/>
  <path d="M136.59,104.59c1.49-2.12,2.25-4.33.58-6.62-1.75-2.39-4.27-2.8-6.97-2-2.38.7-4.7,1.59-7.04,2.4-6.38,2.19-12.75,4.38-19.37,6.65-2.06-8.9-4.08-17.52-6.07-26.15-.81-3.52-2.5-5.43-5.17-5.75-3.01-.37-4.92.82-6.69,4.31-3.38,6.63-6.69,13.29-10.1,19.91-2.05,3.98-4.23,7.88-6.41,11.93-1.06-.53-1.82-.92-2.59-1.28-8.5-3.93-17.01-7.87-25.52-11.78-2.34-1.08-4.54-.75-6.34,1.1-1.84,1.89-1.69,4.15-.76,6.41.44,1.05,1.03,2.04,1.56,3.06,4.13,7.86,8.26,15.72,12.42,23.63-.37.23-.59.39-.83.52-8.98,4.92-17.97,9.82-26.93,14.77-2.44,1.34-4.62,2.98-4.09,6.25.49,2.98,2.83,3.84,5.35,4.42,2.42.56,4.83,1.16,7.25,1.68,7.64,1.62,15.28,3.21,23.08,4.85-1.85,10.24-3.59,20.22-5.46,30.17-.95,5.03,2.31,8.77,7.04,7.6,1.5-.37,2.97-1.38,4.14-2.44,9.75-8.85,19.46-17.75,29.07-26.75,1.35-1.25,2.34-1.5,3.99-.76,7.77,3.45,15.6,6.75,23.38,10.19,2.5,1.11,5,2.39,7.6.68,2.83-1.86,2.3-4.8,1.97-7.59-.06-.47-.21-.93-.33-1.39-2.72-9.83-5.29-19.71-8.24-29.48-1.14-3.78-.9-6.81,1.46-10.07,6.8-9.4,13.35-18.98,20.02-28.47ZM103.68,132.12c-1.68,2.43-1.82,4.91-1.08,7.63,2.12,7.83,4.21,15.66,6.29,23.5.22.82.35,1.66.56,2.67-5.87-2.37-11.61-4.51-17.2-7-4.58-2.04-8.07-1.18-11.54,2.43-5.39,5.62-11.14,10.89-16.77,16.27-1.03.99-2.21,1.82-3.73,3.06,1.2-6.83,2.37-13.03,3.35-19.26.88-5.52-.87-8.11-6.36-9.25-5.14-1.08-10.34-1.86-15.51-2.78-.84-.15-1.66-.39-3.3-.78,5.68-3.04,10.7-5.87,15.84-8.45,8.25-4.12,8.75-5.46,4.46-13.57-2.33-4.4-4.66-8.79-7.33-13.8,3.66,1.89,6.81,3.5,9.94,5.14,2.12,1.11,4.17,2.34,6.32,3.39,4.62,2.24,7.59,1.3,10.01-3.22,3.62-6.75,7.14-13.54,10.71-20.31.44-.83.89-1.65,1.63-3.04,1.33,5.62,2.53,10.65,3.7,15.69,1.59,6.86,4.98,8.71,11.51,6.27,3.91-1.47,7.83-2.89,11.87-4.38-4.53,6.73-8.89,13.3-13.37,19.79Z"/>
  <path class="cls-1" d="M108.89,163.25c.22.82.35,1.66.56,2.67-5.87-2.37-11.61-4.51-17.2-7-4.58-2.04-8.07-1.18-11.54,2.43-5.39,5.62-11.14,10.89-16.77,16.27-1.03.99-2.21,1.82-3.73,3.06,1.2-6.83,2.37-13.03,3.35-19.26.88-5.52-.87-8.11-6.36-9.25-5.14-1.08-10.34-1.86-15.51-2.78-.84-.15-1.66-.39-3.3-.78,5.68-3.04,10.7-5.87,15.84-8.45,8.25-4.12,8.75-5.46,4.46-13.57-2.33-4.4-4.66-8.79-7.33-13.8,3.66,1.89,6.81,3.5,9.94,5.14,2.12,1.11,4.17,2.34,6.32,3.39,4.62,2.24,7.59,1.3,10.01-3.22,3.62-6.75,7.14-13.54,10.71-20.31.44-.83.89-1.65,1.63-3.04,1.33,5.62,2.53,10.65,3.7,15.69,1.59,6.86,4.98,8.71,11.51,6.27,3.91-1.47,7.83-2.89,11.87-4.38-4.53,6.73-8.89,13.3-13.37,19.79-1.68,2.43-1.82,4.91-1.08,7.63,2.12,7.83,4.21,15.66,6.29,23.5Z"/>
</svg>