<?xml version="1.0" encoding="UTF-8"?>
<svg id="_레이어_1" data-name="레이어 1" xmlns="http://www.w3.org/2000/svg" viewBox="0 0 500 500">
  <defs>
    <style>
      .cls-1 {
        fill: #ff8e50;
      }

      .cls-2 {
        fill: #ffcfab;
      }
    </style>
  </defs>
  <path id="stroke" d="M423.48,334.54c-2.97-11.68-8.42-22.27-14.6-32.51-10.92-18.09-24.07-34.49-38.25-50.09-.87-.96-1.01-1.74-.78-3,.5-2.85.82-5.75.98-8.65.67-11.86.01-23.63-2.48-35.28-6.83-31.85-22.88-58.06-48.46-78.22-21.45-16.89-46.05-26.1-73.21-28.23-13.83-1.08-27.63-.2-41.09,3.33-4.73,1.24-8.26.61-12.36-2.28-15.5-10.91-31.67-20.8-49.38-27.82-13.75-5.44-27.82-9.49-42.88-7.82-6.21.69-12.02,2.52-16.75,6.86-8.18,7.52-9.75,17.02-8.06,27.43,1.64,10.07,5.51,19.36,10.24,28.3,8.2,15.52,18.55,29.58,29.61,43.15.95,1.16.89,1.93.29,3.16-11.1,22.48-15.76,46.22-13.95,71.25.9,12.61,3.49,24.84,7.93,36.66,4.74,12.67,11.4,24.28,19.65,34.98,1.12,1.45,1.38,2.48.5,4.23-7.67,15.09-15.18,30.26-22.84,45.36-.54,1.06-1.7,1.94-2.77,2.55-2.93,1.68-6.17,2.89-8.92,4.8-5.49,3.8-7.94,9.21-6.62,15.85,1.21,6.08,5.29,9.59,11.15,11.23,5.2,1.46,10.45,1.6,15.77.84,9.54-1.36,17.06-5.66,21.51-14.54,5.16-10.3,10.32-20.6,15.5-30.89,1.98-3.94,4-7.86,6.08-11.95,24.58,16.25,51.39,24.04,80.89,23.27-.38.88-.63,1.51-.93,2.12-2.52,5.2-5.07,10.39-7.57,15.61-4.96,10.38-10.14,20.66-14.75,31.18-4.15,9.47.06,18.08,9.72,20.85,5.81,1.66,11.74,1.7,17.63.38,4.35-.98,8.28-2.88,11.42-6.13,4.83-5,5.73-10.94,4.16-17.5-.24-1.01-.44-2.31-.02-3.16,8.52-17.18,17.14-34.31,25.76-51.43.3-.6.74-1.28,1.29-1.57,7.92-4.01,15.86-7.95,24.07-12.05,1.3.83,3.07,1.98,4.86,3.11,16.21,10.25,33.01,19.32,51.52,24.77,11.05,3.25,22.29,5.39,33.86,3.17,10.34-1.98,18.1-7.46,21.95-17.54,2.99-7.83,2.35-15.85.33-23.78ZM242.12,110.91c65.59,3.1,118.1,56.41,116.23,125.06-.05,1.72-.14,3.43-.26,5.14-16.14-18.45-42.59-47.45-70.66-71.82-27.47-23.85-56.21-44.33-74.03-56.41,9.16-1.73,18.76-2.44,28.72-1.97ZM140.39,352.72c-4.38,8.73-8.94,17.38-13.05,26.23-2.96,6.35-8.17,8.67-14.52,9.22-2.79.23-5.66-.1-8.46-.44-.98-.12-2.51-.94-2.64-1.64-.16-.9.59-2.37,1.41-2.94,1.88-1.32,3.94-2.56,6.11-3.28,4.67-1.55,7.71-4.5,9.88-8.91,7.02-14.28,14.28-28.45,21.58-42.94,2.83,2.61,5.47,5.05,8.25,7.62-2.87,5.71-5.72,11.4-8.56,17.08ZM253.15,395.38c-1.97,3.98-3.95,7.97-6.05,11.89-1.14,2.15-1.42,4.24-.42,6.47.06.13.11.27.15.4,2.2,6.58,1.22,8.38-5.55,10.1-3.63.92-7.29.93-10.91-.05-2.38-.65-2.84-1.25-1.88-3.46,2.51-5.81,5.15-11.57,7.91-17.27,5.88-12.13,11.89-24.2,17.81-36.31.6-1.23,1.27-1.86,2.77-2.09,4.02-.62,7.98-1.56,12.34-2.45-5.5,11.16-10.82,21.97-16.17,32.77ZM234.11,353.87c-67.94-.85-120.1-55.61-119.54-120.34-.18-42.42,22.5-82.84,58.58-105.07,13.31,9.03,54.96,37.93,92.06,70.13,34.26,29.74,63.65,64.37,74.71,77.4l1.77,2.08,5.08,5.78c-19.62,41.16-62.15,70.65-112.66,70.02ZM134.44,134.96c-3.71-5.76-7.23-11.63-8.7-18.45-.55-2.54.26-3.9,2.89-3.92,2.78-.02,5.66.16,8.34.86,7.53,1.95,14.29,5.71,20.9,9.46-6.46,5.87-12.84,11.66-19.4,17.63-1.25-1.72-2.74-3.59-4.03-5.58ZM355.94,294.29l9.1,10.36c3.85,5.86,7.16,12,8.94,18.89,1.68,6.46-2.36,7.73-6.71,7.01-7.23-1.2-13.61-4.54-19.91-8.06-2.57-1.44-5.05-3.04-7.16-4.32,5.27-7.99,10.43-15.83,15.74-23.88ZM397.75,363.56c-8.59,1.24-16.91-.31-25.12-2.59-18.21-5.04-34.6-13.93-50.36-24.11-.17-.11-.3-.28-.57-.55,3.16-2.98,6.19-5.84,9.14-8.63,5.61,3.11,11.09,6.3,16.71,9.23,5.39,2.8,11.05,5.02,17.08,5.98,9.21,1.45,16.99-1,20.94-9.35,1.73-3.67,1.8-7.38,1.1-11.08-.49-2.57-1.51-5.02-2.89-7.25l-5.51-8.97c-4.63-7.52-9.89-14.62-15.75-21.23l-11.05-12.47-1.46-1.67-1.7-2c-11.21-13.21-41-48.3-75.88-78.58-33.91-29.44-71.55-56.12-88.45-67.76,0,0-10.97-6.29-14.31-7.44-.02,0-.04-.02-.06-.02-.1-.04-.19-.09-.27-.13-.1-.06-.2-.12-.31-.19-9.48-5.77-19.21-11.06-30.05-13.9-4.97-1.31-9.98-1.87-15.08-.69-7.99,1.84-12.5,8.82-11.1,16.88,1.76,10.17,6.99,18.66,12.74,26.91,1.54,2.2,3.26,4.27,4.92,6.43-2.14,2.97-4.29,5.94-6.62,9.18-1.72-2.23-3.4-4.36-5.02-6.54-9.79-13.1-19.21-26.43-25.53-41.64-2.74-6.6-5.04-13.33-4.95-20.63.08-7.43,4.6-12.75,11.9-14.02,9.31-1.62,18.29.05,27.13,2.75,17.23,5.25,32.78,13.94,47.91,23.48,2.81,1.78,5.6,3.59,8.71,5.59,0,0,7.1,2.9,15.05,7.97h.02c.6.39,1.24.82,1.89,1.25.03.02.06.04.08.05h0c16.44,10.92,48.61,33.22,79.18,59.77,31.62,27.45,61.28,61.01,75.93,78.06l10.43,11.16c1.75,1.95,3.52,3.8,5.16,5.77,13.47,16.1,25.93,32.89,34.71,52.11,3.05,6.68,5.43,13.6,5.83,21.06.56,10.27-4.36,16.35-14.52,17.81Z"/>
  <path class="cls-2" d="M148.95,335.64c-2.87,5.71-5.72,11.4-8.56,17.08-4.38,8.73-8.94,17.38-13.05,26.23-2.96,6.35-8.17,8.67-14.52,9.22-2.79.23-5.66-.1-8.46-.44-.98-.12-2.51-.94-2.64-1.64-.16-.9.59-2.37,1.41-2.94,1.88-1.32,3.94-2.56,6.11-3.28,4.67-1.55,7.71-4.5,9.88-8.91,7.02-14.28,14.28-28.45,21.58-42.94,2.83,2.61,5.47,5.05,8.25,7.62Z"/>
  <path class="cls-2" d="M247.1,407.27c-1.14,2.15-1.42,4.24-.42,6.47.06.13.11.27.15.4,2.2,6.58,1.22,8.38-5.55,10.1-3.63.92-7.29.93-10.91-.05-2.38-.65-2.84-1.25-1.88-3.46,2.51-5.81,5.15-11.57,7.91-17.27,5.88-12.13,11.89-24.2,17.81-36.31.6-1.23,1.27-1.86,2.77-2.09,4.02-.62,7.98-1.56,12.34-2.45-5.5,11.16-10.82,21.97-16.17,32.77-1.97,3.98-3.95,7.97-6.05,11.89Z"/>
  <path class="cls-1" d="M397.75,363.56c-8.59,1.24-16.91-.31-25.12-2.59-18.21-5.04-34.6-13.93-50.36-24.11-.17-.11-.3-.28-.57-.55,3.16-2.98,6.19-5.84,9.14-8.63,5.61,3.11,11.09,6.3,16.71,9.23,5.39,2.8,11.05,5.02,17.08,5.98,9.21,1.45,16.99-1,20.94-9.35,1.73-3.67,1.8-7.38,1.1-11.08-.49-2.57-1.51-5.02-2.89-7.25l-5.51-8.97c-4.63-7.52-9.89-14.62-15.75-21.23l-11.05-12.47-1.46-1.67-1.7-2c-11.21-13.21-41-48.3-75.88-78.58-33.91-29.44-71.55-56.12-88.45-67.76,0,0-10.97-6.29-14.31-7.44-.02,0-.04-.02-.06-.02-.1-.04-.19-.09-.27-.13-.1-.06-.2-.12-.31-.19-9.48-5.77-19.21-11.06-30.05-13.9-4.97-1.31-9.98-1.87-15.08-.69-7.99,1.84-12.5,8.82-11.1,16.88,1.76,10.17,6.99,18.66,12.74,26.91,1.54,2.2,3.26,4.27,4.92,6.43-2.14,2.97-4.29,5.94-6.62,9.18-1.72-2.23-3.4-4.36-5.02-6.54-9.79-13.1-19.21-26.43-25.53-41.64-2.74-6.6-5.04-13.33-4.95-20.63.08-7.43,4.6-12.75,11.9-14.02,9.31-1.62,18.29.05,27.13,2.75,17.23,5.25,32.78,13.94,47.91,23.48,2.81,1.78,5.6,3.59,8.71,5.59,0,0,7.1,2.9,15.05,7.97h.02c.6.39,1.24.82,1.89,1.25.03.02.06.04.08.05h0c16.44,10.92,48.61,33.22,79.18,59.77,31.62,27.45,61.28,61.01,75.93,78.06l10.43,11.16c1.75,1.95,3.52,3.8,5.16,5.77,13.47,16.1,25.93,32.89,34.71,52.11,3.05,6.68,5.43,13.6,5.83,21.06.56,10.27-4.36,16.35-14.52,17.81Z"/>
  <g id="body">
    <path class="cls-2" d="M242.12,110.91c-9.96-.47-19.56.24-28.72,1.97,17.82,12.08,46.56,32.56,74.03,56.41,28.07,24.37,54.52,53.37,70.66,71.82.12-1.71.21-3.42.26-5.14,1.87-68.65-50.64-121.96-116.23-125.06Z"/>
    <path class="cls-2" d="M339.92,275.99c-11.06-13.03-40.45-47.66-74.71-77.4-37.1-32.2-78.75-61.1-92.06-70.13-36.08,22.23-58.76,62.65-58.58,105.07-.56,64.73,51.6,119.49,119.54,120.34,50.51.63,93.04-28.86,112.66-70.02l-5.08-5.78-1.77-2.08Z"/>
  </g>
</svg>