<?xml version="1.0" encoding="UTF-8"?>
<svg id="_레이어_1" data-name="레이어 1" xmlns="http://www.w3.org/2000/svg" viewBox="0 0 500 500">
  <defs>
    <style>
      .cls-1 {
        fill: none;
        stroke: #000;
        stroke-linecap: round;
        stroke-linejoin: round;
        stroke-width: 10px;
      }

      .cls-2 {
        fill: #24c1ff;
      }

      .cls-3 {
        fill: #71f8ff;
      }
    </style>
  </defs>
  <path d="M490.38,210.81c-4.19-6.23-10.24-10.37-16.83-13.73-15.12-7.73-31.38-11.88-47.96-14.72-10.5-1.8-21.13-2.79-31.68-4.28-.81-.11-1.83-1.08-2.16-1.89-6.98-17.12-17.05-32.15-30.59-44.76-19.23-17.91-42.11-28.35-68.01-32.05-14.5-2.08-29.09-1.81-43.46,1.35-41.08,9.05-70.42,32.94-87.72,71.16-2.48,5.48-5.44,7.44-10.99,8.44-19.41,3.49-38.45,8.46-56.45,16.76-8.71,4.02-16.93,8.83-23.42,16.1-6.48,7.28-9.26,15.67-6.58,25.3,1.87,6.72,6.37,11.69,11.77,15.88,8.6,6.68,18.45,10.98,28.66,14.46,18.7,6.34,38,10.04,57.5,12.72,2.13.3,3.63.92,4.8,3.07,6.53,12.12,14.91,22.88,25.05,32.19,15.33,14.08,32.76,23.46,53.34,28.62v41.86c0,3.11.91,6.11,2.63,8.65,3.11,4.61,7.05,7.06,11.39,7.09h.09c4.21,0,8.32-2.34,12.23-6.95,1.28,1.45,2.81,2.7,4.58,3.65,2.33,1.24,4.61,1.77,6.74,1.77,4.54,0,8.47-2.38,11.07-5.25.33-.37.69-.72,1.04-1.06l.51-.49c6.77-6.72,3.99-16.69,2.48-20.67-.13-.35-.2-.7-.2-1.03v-25.63c18.97-3.56,36.24-11.47,51.78-23.6,14.56-11.37,25.88-25.48,34.63-41.71.76-1.41,1.55-2.46,3.38-2.77,7.34-1.23,14.68-2.48,21.96-4.05,18.89-4.07,37.51-9.1,54.94-17.72,8.62-4.25,16.74-9.21,23.02-16.68,7.94-9.47,8.92-20.39,2.48-30ZM164.64,201.44c2.33-13.31,6.94-25.91,14.01-37.47,18.15-29.69,44.43-47.49,78.78-53.05,12.53-2.04,25.11-1.71,37.68.32,20.86,3.36,39.31,11.89,55.17,25.77,21.32,18.65,33.71,42.21,37.39,70.28,1.34,10.16.9,20.3-.93,30.39-.31,1.71-.88,2.89-2.98,3.13-17.13,2.04-34.22,4.51-51.38,6.16-12.43,1.19-24.97,1.61-37.46,1.86-15.76.31-31.54.25-47.3,0-11.22-.17-22.41-.92-33.4-1.4-12.56-1.44-24.9-2.81-37.21-4.28-3.59-.44-7.17-1.13-10.72-1.85-.59-.12-1.4-.98-1.47-1.59-.7-6.08-1.72-12.18-1.73-18.27,0-6.68.44-13.45,1.58-20.03ZM268.57,379.22l-.39,1.78c-.3,1.34-.43,2.69-.41,4.02-.35.95-.82,1.84-1.4,2.68-3.74,5.32-6,5.74-6.62,5.74h0c-1,0-2.33-1.09-3.55-2.89-.64-.95-.98-2.09-.98-3.29v-39.81c4.33.77,8.77,1.39,13.38,1.84v29.92ZM289.18,387.88l-.44.43c-.46.44-.97.95-1.48,1.5-2.9,3.23-5.39,1.91-6.21,1.47-1.97-1.05-3.25-3.01-3.61-5.23.45-1.76.69-3.59.69-5.46v-31.21c2.75-.04,5.77-.13,8.77-.43.58-.05,1.16-.12,1.74-.19v24.21c0,1.5.28,2.98.82,4.42.66,1.74,2.6,7.63-.28,10.48ZM279.35,337.81c-42.78,1.07-75.84-17.82-99.41-53.5,32.04,3.52,64.09,4.61,96.19,4.42,31.93-.19,63.73-2.52,95.58-6.68-21.55,33.83-51.5,54.75-92.36,55.76ZM480.32,232.31c-4.15,5.35-9.6,9.11-15.39,12.38-13.17,7.42-27.41,12.03-41.94,15.86-20.33,5.35-41.04,8.83-61.92,11.26-10.9,1.27-21.82,2.51-32.76,3.4-1.37.11-2.73.22-4.11.31-.91.07-1.82.13-2.74.18-6.3.41-12.6.69-18.91.95-1.23.06-2.46.11-3.69.16-1.04.05-2.08.1-3.12.12-7.3.32-14.6.56-21.9.63-7.74.07-15.48,0-23.2-.36-19.1-.95-38.21-1.75-57.27-3.29-12.81-1.03-25.55-3.06-38.28-4.87-15.75-2.25-31.24-5.68-46.29-10.89-9.72-3.36-19.27-7.21-27.16-14.1-3.55-3.11-6.38-6.73-6.86-11.74-.32-3.43.87-6.34,2.68-9.06,4.42-6.59,10.95-10.63,17.84-14.04,16.86-8.32,34.78-13.45,53.23-16.83,1.93-.35,3.86-.62,5.79-.93.08-.02.16.02.54.1-.56,2.83-1.03,5.52-1.69,8.19-.11.43-.99.83-1.59.97-8.39,2.07-16.74,4.23-24.33,8.57-3.88,2.22-7.33,4.97-9.6,8.9-3.59,6.22-2.2,13.62,3.5,18.56,5.94,5.15,13.12,7.93,20.48,10.23,12.04,3.77,24.35,6.4,36.89,7.76,17.05,1.86,34.1,3.7,51.2,4.98,11.25.84,22.57.8,33.87.97,10.09.13,20.19.26,30.28-.09,12.57-.44,25.13-1.23,37.68-2.09,20.35-1.38,40.59-3.75,60.57-8.01,12.61-2.68,25.04-6,36.27-12.65,2.63-1.55,5.12-3.43,7.37-5.51,6.71-6.25,6.33-15.74-.66-21.74-5.34-4.58-11.7-6.98-18.4-8.5-6.07-1.38-12.22-2.31-18.67-3.51-.5-2.52-1.09-5.47-1.69-8.49,5.15.42,10.22.52,15.19,1.29,8.64,1.35,17.27,2.82,25.79,4.77,12.39,2.85,24.62,6.44,35.49,13.34,3.07,1.95,5.91,4.55,8.15,7.4,3.79,4.83,3.35,10.31-.62,15.43ZM152.49,238.57c-4.72-1.6-9.72-3.06-14.51-4.99-3.02-1.21-5.94-2.87-8.59-4.76-3.39-2.41-3.33-4.79-.12-7.44,4.9-4.07,10.87-5.85,16.8-7.71,1.78-.56,3.62-.95,5.36-1.39.35,8.74.7,17.28,1.07,26.28ZM398.38,237.55c.43-8.98.85-17.85,1.31-27.39,5.56,1.16,11.28,2.11,16.85,3.59,3.35.89,6.65,2.33,9.68,4.05,4.19,2.38,4.22,4.84.49,7.81-5.51,4.39-12.02,6.76-18.55,9.02-3.3,1.15-6.68,2.02-9.77,2.92Z"/>
  <path class="cls-3" d="M289.18,387.88l-.44.43c-.46.44-.97.95-1.48,1.5-2.9,3.23-5.39,1.91-6.21,1.47-1.97-1.05-3.25-3.01-3.61-5.23.45-1.76.69-3.59.69-5.46v-31.21c2.75-.04,5.77-.13,8.77-.43.58-.05,1.16-.12,1.74-.19v24.21c0,1.5.28,2.98.82,4.42.66,1.74,2.6,7.63-.28,10.48Z"/>
  <path class="cls-3" d="M268.57,349.29v29.92l-.39,1.78c-.3,1.34-.43,2.69-.41,4.02-.35.95-.82,1.84-1.4,2.68-3.74,5.32-6,5.74-6.62,5.74h0c-1,0-2.33-1.09-3.55-2.89-.64-.95-.98-2.09-.98-3.29v-39.81c4.33.77,8.77,1.39,13.38,1.84Z"/>
  <path class="cls-2" d="M480.31,232.31c-4.14,5.35-9.6,9.11-15.39,12.38-13.16,7.42-27.41,12.03-41.94,15.85-20.34,5.35-41.05,8.83-61.93,11.26-10.9,1.27-21.83,2.51-32.77,3.4-9.79.8-19.62,1.17-29.44,1.59-8.34.36-16.69.68-25.03.76-7.73.07-15.47.01-23.2-.36-19.09-.94-38.21-1.75-57.27-3.28-12.81-1.03-25.55-3.06-38.28-4.87-15.75-2.24-31.24-5.68-46.29-10.89-9.72-3.37-19.27-7.22-27.16-14.11-3.56-3.1-6.38-6.72-6.86-11.74-.32-3.43.86-6.34,2.68-9.05,4.42-6.59,10.95-10.64,17.84-14.04,16.87-8.32,34.78-13.46,53.23-16.83,1.93-.35,3.86-.63,5.79-.93.08-.01.16.02.55.1-.56,2.82-1.04,5.52-1.69,8.18-.11.43-1,.83-1.58.97-8.39,2.08-16.74,4.23-24.33,8.57-3.88,2.22-7.33,4.97-9.6,8.91-3.6,6.22-2.2,13.62,3.49,18.56,5.95,5.16,13.13,7.94,20.48,10.24,12.04,3.78,24.36,6.4,36.89,7.76,17.05,1.86,34.1,3.69,51.21,4.97,11.24.85,22.57.81,33.86.97,10.09.13,20.19.25,30.28-.09,12.57-.44,25.14-1.24,37.69-2.1,20.35-1.37,40.59-3.75,60.57-8,12.61-2.68,25.04-6,36.26-12.65,2.63-1.55,5.13-3.43,7.36-5.51,6.71-6.25,6.34-15.74-.66-21.73-5.33-4.58-11.7-6.99-18.4-8.51-6.06-1.38-12.22-2.32-18.67-3.5-.5-2.52-1.09-5.47-1.69-8.49,5.15.41,10.22.52,15.19,1.29,8.63,1.35,17.28,2.82,25.78,4.77,12.39,2.85,24.62,6.44,35.49,13.34,3.06,1.94,5.91,4.54,8.16,7.39,3.79,4.83,3.35,10.31-.63,15.43Z"/>
  <path class="cls-3" d="M371.71,282.05c-21.55,33.84-51.5,54.75-92.36,55.77-42.77,1.06-75.84-17.82-99.41-53.51,32.03,3.52,64.09,4.61,96.19,4.42,31.93-.19,63.73-2.52,95.59-6.68Z"/>
  <path class="cls-3" d="M386.73,237.69c-.31,1.71-.88,2.89-2.98,3.13-17.13,2.03-34.22,4.51-51.38,6.16-12.43,1.2-24.97,1.62-37.47,1.87-15.76.3-31.54.25-47.3,0-11.21-.17-22.41-.92-33.4-1.4-12.57-1.44-24.9-2.81-37.21-4.29-3.6-.43-7.17-1.12-10.72-1.85-.59-.12-1.41-.99-1.47-1.59-.7-6.08-1.72-12.18-1.73-18.27,0-6.68.44-13.45,1.58-20.03,2.33-13.31,6.93-25.91,14-37.47,18.16-29.68,44.43-47.49,78.78-53.04,12.52-2.03,25.11-1.71,37.68.33,20.86,3.36,39.3,11.88,55.16,25.76,21.32,18.65,33.71,42.21,37.39,70.29,1.33,10.15.9,20.3-.93,30.39Z"/>
  <line class="cls-1" x1="95.32" y1="217.16" x2="8.69" y2="110.31"/>
</svg>