<?xml version="1.0" encoding="UTF-8"?>
<svg id="_레이어_3" data-name="레이어_3" xmlns="http://www.w3.org/2000/svg" viewBox="0 0 500 500">
  <defs>
    <style>
      .cls-1 {
        fill: #fff;
      }
    </style>
  </defs>
  <path d="M206.52,111.71c-3.95-10.22-11.19-17.67-19.76-23.97-18-13.25-36.04-26.43-54.06-39.64-4.33-3.17-4.97-7.76-1.47-10.51,2.08-1.64,4.42-1.3,6.66-.6,7.17,2.23,13.61,6,19.65,10.31,14.79,10.53,29.45,21.24,44.04,32.04,9.13,6.75,15.76,15.54,19.99,26.1.14.36.33.7.56,1.2,2.83-.6,5.66-1.3,8.52-1.79,10.01-1.71,20.08-1.84,30.18-.99,11.91,1,23.35,3.8,34.09,9.06,21.45,10.51,35.49,27.64,43.73,49.75,4.23,11.37,6.9,23.11,7.14,35.31.04,1.88.51,3.33,2,4.69,3.19,2.92,4.15,7.01,4.84,11.07,1.53,9.03,2.7,18.09,2.56,27.3-.06,3.96-1.75,6.75-5.15,8.39-1.6.77-1.76,1.66-1.75,3.2.02,7.62-.18,15.24-.14,22.86,0,1.43.75,2.87,1.19,4.29.65,2.12,1.91,4.23,1.91,6.34-.01,8.24-.33,16.48-.7,24.71-.42,9.39-.92,18.78-1.56,28.16-.47,6.89-1.21,13.76-1.83,20.63-.02.23,0,.49-.11.69-4.42,8.29-2.51,17.46-3.6,26.2-.69,5.54-.7,11.18-1.59,16.68-1.16,7.14-5.73,12.26-11.29,16.51-9.33,7.13-20.1,11.15-31.31,14.1-13.55,3.57-27.35,5.54-41.38,5.21-15.87-.37-31.51-2.25-46.37-8.33-1.22-.5-2.41-1.04-3.62-1.57-8.15-3.52-13.38-9.34-15.27-18.26-2.08-9.81-4.59-19.54-7.03-29.28-.35-1.4-1.07-2.91-2.08-3.92-3.1-3.11-3.93-7.11-4.85-11.1-4.64-20.09-9.32-40.18-13.78-60.31-.47-2.11.38-4.5.58-6.77.09-1.02.38-2.11.15-3.07-1.83-7.74-3.79-15.44-5.62-23.17-.31-1.3-.66-2.13-2.14-2.53-4.72-1.27-6.16-5.17-6.7-9.38-1.06-8.23-1.94-16.48-2.76-24.73-.4-4.03.19-7.88,3.05-11.09.43-.48.54-1.4.52-2.12-.26-8.85-1.17-17.72-.76-26.53,1.04-22.42,8.34-42.7,22.52-60.28,8.62-10.69,19.15-18.95,31.84-24.35.35-.15.67-.37.95-.52ZM226.52,119.08c.18.7.32,1.36.52,2,1.92,6.27,3.8,12.56,5.79,18.81,3.03,9.48,5.93,19.01,9.27,28.38,3.37,9.44,9.62,15.85,20.01,17.64,3.22.55,6.43,1.76,9.37,3.21,4.03,2,4.63,6.84,1.31,9.89-1.55,1.42-3.53,2.78-5.53,3.24-6.69,1.51-13.43,3.09-20.24,3.73-7.81.73-11.53-2.36-13.77-9.87-6.38-21.45-12.76-42.9-19.15-64.35-.78-2.62-1.62-5.22-2.5-8.07-2.75,1.32-5.25,2.36-7.6,3.68-15.83,8.88-26.27,22.42-33.19,38.88-6.64,15.79-7.93,32.4-6.98,49.28.14,2.43.55,4.85.83,7.17.49.1.64.16.79.16,21.23.2,42.46.6,63.61-1.78,14.01-1.57,28.03-3.12,41.95-5.3,20.55-3.21,40.65-8.53,60.73-13.86,1.27-.34,1.61-.9,1.55-2.26-.4-9.66-2.28-19.05-5.3-28.19-6.65-20.06-18.97-35.52-37.59-45.77-10.39-5.72-21.65-8.14-33.38-8.7-10.17-.48-20.32-.27-30.5,2.1ZM338.59,294.44c-25.06,10.09-51.43,16.16-78.62,19.13-27.3,2.98-54.48,3.17-81.8-2.07,4.1,17.23,8.28,34.08,12.04,51.02,1.15,5.19,4.02,7.86,8.79,9.29,10.86,3.25,22,4.42,33.26,4.67,15.4.34,30.73-.6,46-2.69,12.97-1.77,25.8-4.14,38.14-8.56,5.5-1.97,10.75-4.67,16.01-7.24,1.93-.94,3.06-2.7,3.23-5.05.51-7.36,1.2-14.7,1.71-22.06.49-6.97.95-13.95,1.21-20.94.19-5.11.04-10.24.04-15.5ZM172.17,272.4c2.11,8.44,4.14,16.6,6.17,24.76.28,1.12.72,1.72,2.08,1.98,11.69,2.23,23.5,3.24,35.36,3.58,20.7.59,41.22-1.18,61.64-4.58,19.41-3.23,38.32-8.18,56.62-15.46,1.1-.44,1.55-.93,1.56-2.15.04-4.2.27-8.39.33-12.59.06-4.24.01-8.48.01-12.89-53.76,14.86-108.3,19.4-163.77,17.35ZM160.37,235.35c.84,7.34,1.63,14.2,2.39,21.05.19,1.68.55,2.9,2.7,2.96,6.29.17,12.58.64,18.87.8,18.28.47,36.54-.14,54.76-1.71,9.96-.86,19.95-1.64,29.85-2.98,11.18-1.52,22.33-3.39,33.41-5.54,13.03-2.52,26.06-5.15,38.53-9.96,1.27-.49,1.74-1,1.6-2.3-.91-8.15-1.8-16.31-2.71-24.61-58.64,17.69-118.18,25.51-179.4,22.28ZM199.03,385.37c1.87,7.58,3.86,15.32,5.66,23.11.88,3.81,3.06,6.33,6.56,7.85,1.34.59,2.67,1.22,4.04,1.73,10.6,3.91,21.58,5.84,32.83,6.62,15.18,1.05,30.25.53,45.01-3.43,10.87-2.92,21.37-6.8,30.47-13.71,4.38-3.33,6.88-7.62,6.81-13.32-.04-2.62.46-5.25.66-7.88.34-4.44.63-8.89.91-12.89-43.32,15.46-87.41,19.48-132.95,11.92Z"/>
  <g>
    <path class="cls-1" d="M164.65,222.69c.49.1.64.16.79.16,21.23.2,42.46.6,63.61-1.78,14.01-1.57,28.03-3.12,41.95-5.3,20.55-3.21,40.65-8.53,60.73-13.86,1.27-.34,1.61-.9,1.55-2.26-.4-9.66-2.28-19.05-5.3-28.19-6.65-20.06-18.97-35.52-37.59-45.77-10.39-5.72-21.65-8.14-33.38-8.7-10.17-.48-20.32-.27-30.5,2.1.18.7.32,1.36.52,2,1.92,6.27,3.8,12.56,5.79,18.81,3.03,9.48,5.93,19.01,9.27,28.38,3.37,9.44,9.62,15.85,20.01,17.64,3.22.55,6.43,1.76,9.37,3.21,4.03,2,4.63,6.84,1.31,9.89-1.55,1.42-3.53,2.78-5.53,3.24-6.69,1.51-13.43,3.09-20.24,3.73-7.81.73-11.53-2.36-13.77-9.87-6.38-21.45-12.76-42.9-19.15-64.35-.78-2.62-1.62-5.22-2.5-8.07-2.75,1.32-5.25,2.36-7.6,3.68-15.83,8.88-26.27,22.42-33.19,38.88-6.64,15.79-7.93,32.4-6.98,49.28.14,2.43.55,4.85.83,7.17Z"/>
    <path class="cls-1" d="M259.96,313.56c-27.3,2.98-54.48,3.17-81.8-2.07,4.1,17.23,8.28,34.08,12.04,51.02,1.15,5.19,4.02,7.86,8.79,9.29,10.86,3.25,22,4.42,33.26,4.67,15.4.34,30.73-.6,46-2.69,12.97-1.77,25.8-4.14,38.14-8.56,5.5-1.97,10.75-4.67,16.01-7.24,1.93-.94,3.06-2.7,3.23-5.05.51-7.36,1.2-14.7,1.71-22.06.49-6.97.95-13.95,1.21-20.94.19-5.11.04-10.24.04-15.5-25.06,10.09-51.43,16.16-78.62,19.13Z"/>
    <path class="cls-1" d="M180.42,299.14c11.69,2.23,23.5,3.24,35.36,3.58,20.7.59,41.22-1.18,61.64-4.58,19.41-3.23,38.32-8.18,56.62-15.46,1.1-.44,1.55-.93,1.56-2.15.04-4.2.27-8.39.33-12.59.06-4.24.01-8.48.01-12.89-53.76,14.86-108.3,19.4-163.77,17.35,2.11,8.44,4.14,16.6,6.17,24.76.28,1.12.72,1.72,2.08,1.98Z"/>
    <path class="cls-1" d="M342.49,237.67c-.91-8.15-1.8-16.31-2.71-24.61-58.64,17.69-118.18,25.51-179.4,22.28.84,7.34,1.63,14.2,2.39,21.05.19,1.68.55,2.9,2.7,2.96,6.29.17,12.58.64,18.87.8,18.28.47,36.54-.14,54.76-1.71,9.96-.86,19.95-1.64,29.85-2.98,11.18-1.52,22.33-3.39,33.41-5.54,13.03-2.52,26.06-5.15,38.53-9.96,1.27-.49,1.74-1,1.6-2.3Z"/>
    <path class="cls-1" d="M199.03,385.37c1.87,7.58,3.86,15.32,5.66,23.11.88,3.81,3.06,6.33,6.56,7.85,1.34.59,2.67,1.22,4.04,1.73,10.6,3.91,21.58,5.84,32.83,6.62,15.18,1.05,30.25.53,45.01-3.43,10.87-2.92,21.37-6.8,30.47-13.71,4.38-3.33,6.88-7.62,6.81-13.32-.04-2.62.46-5.25.66-7.88.34-4.44.63-8.89.91-12.89-43.32,15.46-87.41,19.48-132.95,11.92Z"/>
  </g>
</svg>