<?xml version="1.0" encoding="UTF-8"?>
<svg id="_레이어_2" data-name="레이어_2" xmlns="http://www.w3.org/2000/svg" viewBox="0 0 500 500">
  <defs>
    <style>
      .cls-1 {
        fill: #fff;
      }
    </style>
  </defs>
  <path d="M287.03,425.81c-6.88-.36-13.21-2.79-19.55-5.23-23.57-9.09-45.45-21.53-67.2-34.15-37.1-21.54-73.98-43.48-110.95-65.26-10.73-6.32-21.48-12.63-32.18-19.01-1.66-.99-3.17-2.28-4.58-3.6-6.03-5.64-5.73-13.15.89-18.11,4.41-3.3,8.96-6.44,13.65-9.33,32.87-20.3,65.79-40.5,98.65-60.81,1.18-.73,2.05-2.19,2.69-3.5,9.79-20.12,19.41-40.32,29.29-60.4,9.74-19.79,19.7-39.47,29.63-59.16,3.23-6.4,6.09-7.72,12.7-6.05,2.88.73,5.74,1.64,8.52,2.7,32.27,12.28,64.51,24.61,96.77,36.91,32.33,12.33,64.68,24.64,97.01,36.98,1.96.75,3.87,1.61,5.75,2.54,6.68,3.29,9.33,8.44,7.05,15.58-2.42,7.59-5.41,15.02-8.53,22.36-16.78,39.53-33.59,79.06-50.68,118.46-1.77,4.09-5.11,7.67-8.25,10.98-22.07,23.25-44.26,46.38-66.45,69.51-7.04,7.34-14.22,14.55-21.37,21.78-1.48,1.5-3.07,2.92-4.7,4.25-2.35,1.92-5.07,2.85-8.16,2.59ZM56.84,288.91c1.1,1.4,1.65,2.45,2.51,3.12,2.62,2.03,5.23,4.13,8.07,5.8,37.61,22.1,75.24,44.17,112.91,66.16,23.97,13.99,47.77,28.28,72.86,40.25,9.91,4.73,19.95,9.18,30.61,12,3.04.8,5.72.42,8.17-2.11,8.98-9.31,18.23-18.35,27.21-27.66,17.79-18.45,35.48-36.98,53.15-55.53,4.54-4.76,8.87-9.71,13.39-14.67-1-.57-1.68-1-2.4-1.35-9.65-4.73-19.24-9.55-28.95-14.15-45.5-21.52-91.02-43.01-136.57-64.42-13.37-6.28-26.91-12.21-40.33-18.4-3-1.39-5.36-1.02-8.22.76-33,20.54-66.1,40.9-99.15,61.36-4.39,2.72-8.6,5.71-13.27,8.84ZM236.33,89.91c-19.7,39.6-39.84,78.24-58,117.09,70.87,33.58,141.38,67,212.05,100.49.36-.79.81-1.72,1.21-2.66,10.9-25.46,21.94-50.86,32.63-76.41,7.19-17.19,14.04-34.52,20.73-51.91,2.54-6.61,2.35-5.91-3.73-8.4-12.83-5.26-25.77-10.28-38.72-15.23-38.73-14.8-77.48-29.55-116.24-44.27-16.49-6.26-33.03-12.38-49.92-18.71Z"/>
  <path d="M172.32,234.12c3,.88,5.69,1.28,8.04,2.41,31.46,15.23,62.93,30.46,94.29,45.91,21.64,10.66,43.12,21.66,64.66,32.51,1.01.51,2,1.06,2.96,1.66,5.04,3.16,6.02,8.22,2.22,12.82-2.74,3.32-5.74,6.43-8.8,9.46-14.27,14.15-28.6,28.24-42.92,42.33-1.74,1.71-3.56,3.34-5.42,4.92-4.48,3.79-9.73,4.81-15.01,2.57-8.61-3.65-17.2-7.48-25.42-11.92-47.42-25.61-94.78-51.31-140.84-79.34-3.11-1.89-6.19-3.85-9.21-5.88-4.15-2.78-4.59-8.41-.55-11.32,7.75-5.59,15.58-11.1,23.67-16.18,14.6-9.18,29.38-18.08,44.18-26.93,2.48-1.48,5.49-2.07,8.15-3.04Z"/>
  <path d="M201.62,187.32c.65-1.85,1.64-5.34,3.09-8.63,10-22.59,22.24-44.02,34.07-65.66,1.95-3.57,4.3-4.59,8.14-3.17,8.85,3.27,17.62,6.75,26.36,10.3,30.73,12.47,61.44,25,92.16,37.53,17.86,7.29,35.71,14.62,53.57,21.91,6.25,2.55,7.84,5.74,5.1,11.95-7.4,16.76-15,33.44-22.55,50.13-3.96,8.75-7.93,17.5-12.04,26.18-3.12,6.58-5.62,7.6-12.33,4.78-14.58-6.14-29.17-12.26-43.6-18.74-42.21-18.96-84.35-38.09-126.5-57.18-4.4-1.99-5.48-3.63-5.46-9.39ZM393.95,235.92c3.29-6.72,6.39-13.07,9.55-19.52-8.6-3.89-16.89-7.63-25.16-11.37-3.57,6.42-7.07,12.73-10.61,19.1,8.81,3.96,17.54,7.89,26.22,11.79ZM260.28,154.29c-8.96-4.06-17.67-8.01-26.69-12.1-3.19,6.09-6.36,12.11-9.57,18.24,8.97,3.93,17.65,7.74,26.41,11.58,3.38-6.08,6.59-11.87,9.85-17.72ZM382.82,196.62c8.23,3.65,16.38,7.27,24.56,10.91,2.77-6.48,5.49-12.83,8.31-19.42-7.89-3.06-15.59-6.04-23.17-8.98-3.31,5.97-6.47,11.67-9.7,17.49ZM282.05,220.85c7.32,3.24,14.48,6.41,21.45,9.5,3.52-6.64,6.96-13.11,10.55-19.88-7.05-3.11-14.11-6.21-21.11-9.3-3.65,6.6-7.23,13.06-10.9,19.68ZM331.61,242.76c3.66-6.68,7.2-13.15,10.8-19.73-6.58-2.85-13.27-5.75-19.84-8.59-3.62,6.47-7.15,12.78-10.78,19.26,6.68,3.05,13.18,6.02,19.82,9.06ZM350.57,226.55c-3.53,6.79-6.9,13.28-10.37,19.97,6.34,2.82,12.63,5.62,19.03,8.46,3.59-6.73,7.04-13.19,10.66-19.97-6.5-2.84-12.75-5.58-19.32-8.46ZM258.46,175.88c6.89,3.01,13.43,5.87,20.22,8.84,3.41-6.16,6.76-12.19,10.2-18.4-7.02-3.06-13.63-5.94-20.1-8.76-3.54,6.29-6.85,12.18-10.31,18.33ZM297.33,169.76c-3.6,6.33-7.06,12.42-10.58,18.62,6.54,2.93,13.1,5.88,19.56,8.77,3.54-6.44,6.93-12.63,10.42-18.97-6.47-2.81-12.88-5.6-19.4-8.43ZM359.76,220.56c3.4-6.5,6.75-12.91,10.17-19.45-6.5-2.77-12.67-5.4-18.84-8.04-3.5,6.49-6.95,12.87-10.42,19.3,6.45,2.77,12.67,5.43,19.09,8.19ZM332.91,154.87c-3.2,5.74-6.2,11.14-9.2,16.52,7.6,3.06,14.95,6.03,22.37,9.02,3.01-5.66,5.91-11.1,8.87-16.67-7.55-3.03-14.86-5.97-22.05-8.86ZM301.23,142.07c-2.84,5.45-5.51,10.58-8.2,15.75,7.61,3.25,15.07,6.43,22.58,9.64,2.89-5.36,5.71-10.58,8.59-15.93-7.83-3.22-15.42-6.35-22.97-9.46ZM284.77,197.49c-5.76-2.46-11.3-4.88-16.9-7.16-.52-.21-1.76.2-2.03.69-3.34,5.81-6.57,11.69-9.91,17.71,6.1,2.85,12,5.6,17.91,8.36,3.72-6.67,7.29-13.06,10.94-19.6ZM384.02,175.49c-6.94-2.81-13.63-5.52-20.41-8.26-3.18,5.77-6.25,11.32-9.45,17.12,6.87,2.9,13.49,5.69,20.21,8.53,3.25-5.86,6.37-11.48,9.64-17.38ZM332.74,208.76c3.4-6.48,6.75-12.87,10.15-19.36-5.87-2.53-11.9-5.14-17.74-7.66-3.54,6.47-6.98,12.75-10.47,19.11,6.17,2.7,12.11,5.31,18.05,7.91ZM241.06,178.12c-3.48,6.35-6.89,12.58-10.33,18.85,5.95,2.81,11.58,5.47,17.08,8.07,3.58-6.67,7.02-13.07,10.49-19.55-5.66-2.42-11.42-4.88-17.25-7.37ZM263.44,145.53c7.26,2.97,14.15,5.79,21.05,8.61,2.79-5.22,5.45-10.2,8.25-15.44-6.87-2.88-13.61-5.71-20.6-8.65-2.93,5.23-5.73,10.21-8.69,15.48ZM255.11,141.68c2.84-5.05,5.6-9.97,8.37-14.91-5.99-2.33-11.89-4.62-17.87-6.94-2.68,4.68-5.35,9.36-8.01,14,5.92,2.65,11.58,5.19,17.51,7.85ZM381.45,264.17c3.04-6.7,6.04-13.32,9.03-19.91-4.17-1.88-8.19-3.7-12.45-5.63-3.48,6.53-6.91,12.97-10.39,19.49,4.65,2.04,9.2,4.03,13.81,6.05ZM232.95,174.34c-4.17-1.92-8.54-3.93-13.24-6.08-3.01,6.7-5.96,13.27-8.93,19.9,4.15,1.82,8.05,3.53,11.96,5.25,3.43-6.4,6.81-12.71,10.22-19.07Z"/>
  <g>
    <path class="cls-1" d="M354.38,300.78c-45.5-21.52-91.02-43.01-136.57-64.42-13.37-6.28-26.91-12.21-40.33-18.4-3-1.39-5.36-1.02-8.22.76-33,20.54-66.1,40.9-99.15,61.36-4.39,2.72-8.6,5.71-13.27,8.84,1.1,1.4,1.65,2.45,2.51,3.12,2.62,2.03,5.23,4.13,8.07,5.8,37.61,22.1,75.24,44.17,112.91,66.16,23.97,13.99,47.77,28.28,72.86,40.25,9.91,4.73,19.95,9.18,30.61,12,3.04.8,5.72.42,8.17-2.11,8.98-9.31,18.23-18.35,27.21-27.66,17.79-18.45,35.48-36.98,53.15-55.53,4.54-4.76,8.87-9.71,13.39-14.67-1-.57-1.68-1-2.4-1.35-9.65-4.73-19.24-9.55-28.95-14.15ZM344.48,329.44c-2.74,3.32-5.74,6.43-8.8,9.46-14.27,14.15-28.6,28.24-42.92,42.33-1.74,1.71-3.56,3.34-5.42,4.92-4.48,3.79-9.73,4.81-15.01,2.57-8.61-3.65-17.2-7.48-25.42-11.92-47.42-25.61-94.78-51.31-140.84-79.34-3.11-1.89-6.19-3.85-9.21-5.88-4.15-2.78-4.59-8.41-.55-11.32,7.75-5.59,15.58-11.1,23.67-16.18,14.6-9.18,29.38-18.08,44.18-26.93,2.48-1.48,5.49-2.07,8.15-3.04,3,.88,5.69,1.28,8.04,2.41,31.46,15.23,62.93,30.46,94.29,45.91,21.64,10.66,43.12,21.66,64.66,32.51,1.01.51,2,1.06,2.96,1.66,5.04,3.16,6.02,8.22,2.22,12.82Z"/>
    <path class="cls-1" d="M441.21,168.11c-12.83-5.26-25.77-10.28-38.72-15.23-38.73-14.8-77.48-29.55-116.24-44.27-16.49-6.26-33.03-12.38-49.92-18.71-19.7,39.6-39.84,78.24-58,117.09,70.87,33.58,141.38,67,212.05,100.49.36-.79.81-1.72,1.21-2.66,10.9-25.46,21.94-50.86,32.63-76.41,7.19-17.19,14.04-34.52,20.73-51.91,2.54-6.61,2.35-5.91-3.73-8.4ZM424.11,191.55c-7.4,16.76-15,33.44-22.55,50.13-3.96,8.75-7.93,17.5-12.04,26.18-3.12,6.58-5.62,7.6-12.33,4.78-14.58-6.14-29.17-12.26-43.6-18.74-42.21-18.96-84.35-38.09-126.5-57.18-4.4-1.99-5.48-3.63-5.46-9.39.65-1.85,1.64-5.34,3.09-8.63,10-22.59,22.24-44.02,34.07-65.66,1.95-3.57,4.3-4.59,8.14-3.17,8.85,3.27,17.62,6.75,26.36,10.3,30.73,12.47,61.44,25,92.16,37.53,17.86,7.29,35.71,14.62,53.57,21.91,6.25,2.55,7.84,5.74,5.1,11.95Z"/>
    <path class="cls-1" d="M367.73,224.12c8.81,3.96,17.54,7.89,26.22,11.79,3.29-6.72,6.39-13.07,9.55-19.52-8.6-3.89-16.89-7.63-25.16-11.37-3.57,6.42-7.07,12.73-10.61,19.1Z"/>
    <path class="cls-1" d="M260.28,154.29c-8.96-4.06-17.67-8.01-26.69-12.1-3.19,6.09-6.36,12.11-9.57,18.24,8.97,3.93,17.65,7.74,26.41,11.58,3.38-6.08,6.59-11.87,9.85-17.72Z"/>
    <path class="cls-1" d="M382.82,196.62c8.23,3.65,16.38,7.27,24.56,10.91,2.77-6.48,5.49-12.83,8.31-19.42-7.89-3.06-15.59-6.04-23.17-8.98-3.31,5.97-6.47,11.67-9.7,17.49Z"/>
    <path class="cls-1" d="M292.95,201.17c-3.65,6.6-7.23,13.06-10.9,19.68,7.32,3.24,14.48,6.41,21.45,9.5,3.52-6.64,6.96-13.11,10.55-19.88-7.05-3.11-14.11-6.21-21.11-9.3Z"/>
    <path class="cls-1" d="M322.57,214.44c-3.62,6.47-7.15,12.78-10.78,19.26,6.68,3.05,13.18,6.02,19.82,9.06,3.66-6.68,7.2-13.15,10.8-19.73-6.58-2.85-13.27-5.75-19.84-8.59Z"/>
    <path class="cls-1" d="M350.57,226.55c-3.53,6.79-6.9,13.28-10.37,19.97,6.34,2.82,12.63,5.62,19.03,8.46,3.59-6.73,7.04-13.19,10.66-19.97-6.5-2.84-12.75-5.58-19.32-8.46Z"/>
    <path class="cls-1" d="M258.46,175.88c6.89,3.01,13.43,5.87,20.22,8.84,3.41-6.16,6.76-12.19,10.2-18.4-7.02-3.06-13.63-5.94-20.1-8.76-3.54,6.29-6.85,12.18-10.31,18.33Z"/>
    <path class="cls-1" d="M316.73,178.18c-6.47-2.81-12.88-5.6-19.4-8.43-3.6,6.33-7.06,12.42-10.58,18.62,6.54,2.93,13.1,5.88,19.56,8.77,3.54-6.44,6.93-12.63,10.42-18.97Z"/>
    <path class="cls-1" d="M369.93,201.11c-6.5-2.77-12.67-5.4-18.84-8.04-3.5,6.49-6.95,12.87-10.42,19.3,6.45,2.77,12.67,5.43,19.09,8.19,3.4-6.5,6.75-12.91,10.17-19.45Z"/>
    <path class="cls-1" d="M346.08,180.41c3.01-5.66,5.91-11.1,8.87-16.67-7.55-3.03-14.86-5.97-22.05-8.86-3.2,5.74-6.2,11.14-9.2,16.52,7.6,3.06,14.95,6.03,22.37,9.02Z"/>
    <path class="cls-1" d="M324.21,151.53c-7.83-3.22-15.42-6.35-22.97-9.46-2.84,5.45-5.51,10.58-8.2,15.75,7.61,3.25,15.07,6.43,22.58,9.64,2.89-5.36,5.71-10.58,8.59-15.93Z"/>
    <path class="cls-1" d="M267.87,190.33c-.52-.21-1.76.2-2.03.69-3.34,5.81-6.57,11.69-9.91,17.71,6.1,2.85,12,5.6,17.91,8.36,3.72-6.67,7.29-13.06,10.94-19.6-5.76-2.46-11.3-4.88-16.9-7.16Z"/>
    <path class="cls-1" d="M374.38,192.87c3.25-5.86,6.37-11.48,9.64-17.38-6.94-2.81-13.63-5.52-20.41-8.26-3.18,5.77-6.25,11.32-9.45,17.12,6.87,2.9,13.49,5.69,20.21,8.53Z"/>
    <path class="cls-1" d="M342.89,189.4c-5.87-2.53-11.9-5.14-17.74-7.66-3.54,6.47-6.98,12.75-10.47,19.11,6.17,2.7,12.11,5.31,18.05,7.91,3.4-6.48,6.75-12.87,10.15-19.36Z"/>
    <path class="cls-1" d="M241.06,178.12c-3.48,6.35-6.89,12.58-10.33,18.85,5.95,2.81,11.58,5.47,17.08,8.07,3.58-6.67,7.02-13.07,10.49-19.55-5.66-2.42-11.42-4.88-17.25-7.37Z"/>
    <path class="cls-1" d="M284.49,154.14c2.79-5.22,5.45-10.2,8.25-15.44-6.87-2.88-13.61-5.71-20.6-8.65-2.93,5.23-5.73,10.21-8.69,15.48,7.26,2.97,14.15,5.79,21.05,8.61Z"/>
    <path class="cls-1" d="M263.48,126.78c-5.99-2.33-11.89-4.62-17.87-6.94-2.68,4.68-5.35,9.36-8.01,14,5.92,2.65,11.58,5.19,17.51,7.85,2.84-5.05,5.6-9.97,8.37-14.91Z"/>
    <path class="cls-1" d="M367.64,258.12c4.65,2.04,9.2,4.03,13.81,6.05,3.04-6.7,6.04-13.32,9.03-19.91-4.17-1.88-8.19-3.7-12.45-5.63-3.48,6.53-6.91,12.97-10.39,19.49Z"/>
    <path class="cls-1" d="M219.71,168.25c-3.01,6.7-5.96,13.27-8.93,19.9,4.15,1.82,8.05,3.53,11.96,5.25,3.43-6.4,6.81-12.71,10.22-19.07-4.17-1.92-8.54-3.93-13.24-6.08Z"/>
  </g>
</svg>