<?xml version="1.0" encoding="UTF-8"?>
<svg id="_레이어_3" data-name="레이어_3" xmlns="http://www.w3.org/2000/svg" viewBox="0 0 500 500">
  <defs>
    <style>
      .cls-1 {
        fill: #fff;
      }
    </style>
  </defs>
  <path d="M259.89,132.24c8.93,2.19,17.49,4.18,25.98,6.43,2.19.58,4.3,1.77,6.22,3.03,7.52,4.91,8.47,13.22,2.47,19.92-4.41,4.92-10.22,7.46-16.21,9.64-10.06,3.66-20.54,5.67-31.05,7.51-.69.12-1.36.35-2.05.39-2.02.12-2.01,1.09-1.34,2.65,22.76,52.57,45.15,105.3,68.36,157.66,13.04,29.41,27.42,58.23,41.21,87.3,1.75,3.69,2.45,7.32.12,11.05-3.42,5.47-11.33,6.06-15.25.93-1.71-2.25-2.98-4.87-4.24-7.43-23.09-47.09-44.81-94.81-65.39-143.04-13.2-30.93-26.13-61.97-39.19-92.96-.26-.62-.54-1.23-1.03-2.32-1.83,2.84-3.4,5.36-5.06,7.83-7.71,11.44-15.35,22.93-23.23,34.25-2.31,3.32-4.86,6.66-9.23,7.8-6.6,1.72-13.13-2.76-13.27-9.56-.29-14.93-.38-29.86-.45-44.8-.01-2.3-.46-3.4-3.06-3.84-14.72-2.47-29.4-5.14-44.08-7.83-2.18-.4-4.39-1.02-6.38-1.99-7.12-3.45-8.68-11.74-3.15-17.41,1.96-2.01,4.49-3.57,6.97-4.96,12.37-6.92,24.8-13.75,37.25-20.52,2.06-1.12,2.83-2.47,2.63-4.81-1.13-12.99-2.19-25.99-3.18-38.99-.33-4.33-.67-8.7-.51-13.03.24-6.47,5.49-10.97,11.81-10.21,1.8.22,3.85,1.09,5.14,2.34,6.16,5.92,12.11,12.06,18.11,18.15,3.6,3.66,7.13,7.38,10.73,11.04,2.07,2.1,2.9,2.19,5.16.39,11.99-9.51,23.95-19.05,35.91-28.59,2.34-1.86,4.77-3.28,7.93-3.44,6.62-.33,11.39,6.07,10.5,12.05-1.7,11.48-3.79,22.9-5.7,34.35-1.2,7.16-2.36,14.32-3.46,21.01ZM195.46,208.92c.26.01.53.03.79.04.11-.1.26-.17.33-.29,8.05-12.69,16.19-25.33,24.09-38.11,2.84-4.6,6.64-7.53,11.84-8.56,8.34-1.65,16.73-3.06,25.07-4.73,4.29-.86,8.5-2.07,12.75-3.13-3.41-1.1-6.73-1.72-10.06-2.35-3.34-.64-6.69-1.26-10.02-1.94-7.37-1.5-10.98-6.42-9.9-13.95,1.14-7.97,2.58-15.89,3.88-23.83.86-5.3,1.7-10.6,2.59-16.12-.49.23-.71.28-.88.42-8.57,6.81-17.23,13.51-25.67,20.48-5.78,4.77-13.21,5.13-18.75-1.15-5.19-5.88-10.81-11.39-16.25-17.06-.39-.41-.82-.77-1.43-1.33,0,.72-.03,1.11,0,1.49.94,10.9,1.84,21.81,2.86,32.7.57,6.13-1.72,10.76-6.9,13.94-2.84,1.74-5.82,3.25-8.74,4.85-6.57,3.6-13.15,7.18-20.21,11.04,2.27.45,3.96.81,5.66,1.13,9.87,1.87,19.77,3.62,29.61,5.63,5.66,1.16,9.29,5.76,9.33,11.48.07,9.79.02,19.58.02,29.37Z"/>
  <path class="cls-1" d="M195.46,208.92c0-9.79.05-19.58-.02-29.37-.04-5.72-3.66-10.33-9.33-11.48-9.84-2.01-19.74-3.76-29.61-5.63-1.7-.32-3.39-.67-5.66-1.13,7.07-3.86,13.64-7.45,20.21-11.04,2.92-1.6,5.9-3.11,8.74-4.85,5.18-3.17,7.47-7.81,6.9-13.94-1.02-10.89-1.92-21.8-2.86-32.7-.03-.38,0-.77,0-1.49.61.56,1.04.93,1.43,1.33,5.44,5.67,11.06,11.18,16.25,17.06,5.54,6.28,12.96,5.92,18.75,1.15,8.44-6.97,17.1-13.67,25.67-20.48.17-.13.4-.19.88-.42-.88,5.52-1.72,10.82-2.59,16.12-1.3,7.94-2.74,15.87-3.88,23.83-1.08,7.53,2.54,12.45,9.9,13.95,3.33.68,6.68,1.31,10.02,1.94,3.32.63,6.65,1.25,10.06,2.35-4.25,1.05-8.46,2.27-12.75,3.13-8.34,1.67-16.72,3.08-25.07,4.73-5.2,1.03-9,3.96-11.84,8.56-7.9,12.79-16.04,25.42-24.09,38.11-.08.12-.22.2-.33.29-.26-.01-.53-.03-.79-.04Z"/>
</svg>