<svg width="66" height="58" viewBox="0 0 66 58" fill="none" xmlns="http://www.w3.org/2000/svg">
<g clip-path="url(#clip0_10_499)">
<path d="M33 8.75C21.8175 8.75 12.75 17.8175 12.75 29C12.75 40.1825 21.8175 49.25 33 49.25C34.8675 49.25 36.375 47.7425 36.375 45.875C36.375 44.9975 36.0375 44.21 35.4975 43.6025C34.98 43.0175 34.6425 42.23 34.6425 41.375C34.6425 39.5075 36.15 38 38.0175 38H42C48.21 38 53.25 32.96 53.25 26.75C53.25 16.805 44.1825 8.75 33 8.75ZM20.625 29C18.7575 29 17.25 27.4925 17.25 25.625C17.25 23.7575 18.7575 22.25 20.625 22.25C22.4925 22.25 24 23.7575 24 25.625C24 27.4925 22.4925 29 20.625 29ZM27.375 20C25.5075 20 24 18.4925 24 16.625C24 14.7575 25.5075 13.25 27.375 13.25C29.2425 13.25 30.75 14.7575 30.75 16.625C30.75 18.4925 29.2425 20 27.375 20ZM38.625 20C36.7575 20 35.25 18.4925 35.25 16.625C35.25 14.7575 36.7575 13.25 38.625 13.25C40.4925 13.25 42 14.7575 42 16.625C42 18.4925 40.4925 20 38.625 20ZM45.375 29C43.5075 29 42 27.4925 42 25.625C42 23.7575 43.5075 22.25 45.375 22.25C47.2425 22.25 48.75 23.7575 48.75 25.625C48.75 27.4925 47.2425 29 45.375 29Z" fill="__FILL__"/>
</g>
<defs>
<clipPath id="clip0_10_499">
<rect width="54" height="54" fill="white" transform="translate(6 2)"/>
</clipPath>
</defs>
</svg>
